<svg width="35" height="35" viewBox="0 0 35 35" fill="none" xmlns="http://www.w3.org/2000/svg">
<g id="cloud_upload_24px">
<path id="icon/file/cloud_upload_24px" fill-rule="evenodd" clip-rule="evenodd" d="M28.2188 14.6417C27.2271 9.61043 22.8083 5.83334 17.5 5.83334C13.2854 5.83334 9.625 8.22501 7.80208 11.725C3.4125 12.1917 0 15.9104 0 20.4167C0 25.2438 3.92292 29.1667 8.75 29.1667H27.7083C31.7333 29.1667 35 25.9 35 21.875C35 18.025 32.0104 14.9042 28.2188 14.6417ZM27.7083 26.25H8.75C5.52708 26.25 2.91667 23.6396 2.91667 20.4167C2.91667 17.4271 5.14792 14.9333 8.10833 14.6271L9.66875 14.4667L10.3979 13.0813C11.7833 10.4125 14.4958 8.75001 17.5 8.75001C21.3208 8.75001 24.6167 11.4625 25.3604 15.2104L25.7979 17.3979L28.0292 17.5583C30.3042 17.7042 32.0833 19.6146 32.0833 21.875C32.0833 24.2813 30.1146 26.25 27.7083 26.25ZM15.3854 18.9583H11.6667L17.5 13.125L23.3333 18.9583H19.6146V23.3333H15.3854V18.9583Z" fill="#8684FF"/>
</g>
</svg>
