<svg width="15" height="15" viewBox="0 0 15 15" fill="none" xmlns="http://www.w3.org/2000/svg">
<g id="16 / search">
<path id="icon" fill-rule="evenodd" clip-rule="evenodd" d="M9.01643 10.3423C8.18577 10.9148 7.1789 11.25 6.09375 11.25C3.24603 11.25 0.9375 8.94147 0.9375 6.09375C0.9375 3.24603 3.24603 0.9375 6.09375 0.9375C8.94147 0.9375 11.25 3.24603 11.25 6.09375C11.25 7.1789 10.9148 8.18577 10.3423 9.01643L13.7879 12.4621L12.4621 13.7879L9.01643 10.3423ZM6.09375 9.375C7.90593 9.375 9.375 7.90593 9.375 6.09375C9.375 4.28157 7.90593 2.8125 6.09375 2.8125C4.28157 2.8125 2.8125 4.28157 2.8125 6.09375C2.8125 7.90593 4.28157 9.375 6.09375 9.375Z" fill="white"/>
</g>
</svg>
