<svg width="35" height="35" viewBox="0 0 35 35" fill="none" xmlns="http://www.w3.org/2000/svg">
<g id="supervised_user_circle_24px">
<path id="icon/action/supervised_user_circle_24px" fill-rule="evenodd" clip-rule="evenodd" d="M17.5 2.91666C9.44996 2.91666 2.91663 9.44999 2.91663 17.5C2.91663 25.55 9.44996 32.0833 17.5 32.0833C25.55 32.0833 32.0833 25.55 32.0833 17.5C32.0833 9.44999 25.55 2.91666 17.5 2.91666ZM18.2437 14.5687C18.2437 12.1625 16.275 10.1937 13.8687 10.1937C11.4625 10.1937 9.49371 12.1625 9.49371 14.5687C9.49371 16.975 11.4625 18.9437 13.8687 18.9437C16.275 18.9437 18.2437 16.975 18.2437 14.5687ZM13.8687 16.0271C13.0666 16.0271 12.4104 15.3708 12.4104 14.5687C12.4104 13.7667 13.0666 13.1104 13.8687 13.1104C14.6708 13.1104 15.327 13.7667 15.327 14.5687C15.327 15.3708 14.6708 16.0271 13.8687 16.0271ZM26.2645 16.0271C26.2645 17.6458 24.9666 18.9437 23.3479 18.9437C21.7291 18.9437 20.4312 17.6458 20.4312 16.0271C20.4166 14.4083 21.7291 13.1104 23.3479 13.1104C24.9666 13.1104 26.2645 14.4083 26.2645 16.0271ZM13.8687 23.3333C11.8416 23.3333 9.52288 24.1646 8.53121 24.9521C10.5291 27.3583 13.475 28.9333 16.7854 29.1229V25.0687C16.7854 22.3125 21.1312 21.1312 23.3479 21.1312C24.6312 21.1312 26.6145 21.5396 28.0729 22.4C28.7729 20.8979 29.1666 19.2354 29.1666 17.4854C29.1666 11.0542 23.9312 5.81874 17.5 5.81874C11.0687 5.81874 5.83329 11.0542 5.83329 17.4854C5.83329 19.2792 6.24163 20.9708 6.97079 22.4875C8.92496 21.0583 11.9729 20.4021 13.8687 20.4021C14.5104 20.4021 15.2833 20.4896 16.1 20.6354C15.1812 21.4667 14.5541 22.4146 14.2041 23.3479C14.1438 23.3479 14.0836 23.344 14.0253 23.3403C13.9708 23.3367 13.918 23.3333 13.8687 23.3333Z" fill="white"/>
</g>
</svg>
